<svg xmlns="http://www.w3.org/2000/svg" version="1.1" width="200px" height="200px" style="shape-rendering:geometricPrecision; text-rendering:geometricPrecision; image-rendering:optimizeQuality; fill-rule:evenodd; clip-rule:evenodd" xmlns:xlink="http://www.w3.org/1999/xlink">
<g><path style="opacity:0.982" fill="#061b78" d="M 85.5,-0.5 C 94.8333,-0.5 104.167,-0.5 113.5,-0.5C 161.167,9.16667 189.833,37.8333 199.5,85.5C 199.5,94.8333 199.5,104.167 199.5,113.5C 189.833,161.167 161.167,189.833 113.5,199.5C 104.167,199.5 94.8333,199.5 85.5,199.5C 37.8333,189.833 9.16667,161.167 -0.5,113.5C -0.5,104.167 -0.5,94.8333 -0.5,85.5C 9.16667,37.8333 37.8333,9.16667 85.5,-0.5 Z"/></g>
<g><path style="opacity:0.702" fill="#f3f3f4" d="M 89.5,19.5 C 130.277,17.7867 158.777,35.4533 175,72.5C 186.278,114.357 173.778,146.857 137.5,170C 98.2073,187.871 64.374,180.704 36,148.5C 14.0295,115.775 14.0295,83.1079 36,50.5C 49.9007,33.3021 67.7341,22.9688 89.5,19.5 Z"/></g>
<g><path style="opacity:1" fill="#0f1f7a" d="M 88.5,114.5 C 89.6569,106.01 89.8236,97.3433 89,88.5C 88.2828,89.0442 87.7828,89.7109 87.5,90.5C 84.9547,97.2609 82.1213,103.928 79,110.5C 76.2053,111.783 73.3719,111.783 70.5,110.5C 67.4303,103.458 64.2636,96.458 61,89.5C 60.5003,97.8267 60.3336,106.16 60.5,114.5C 63.3198,114.248 65.9865,114.748 68.5,116C 69.9817,118.592 69.6483,120.925 67.5,123C 61.1667,123.667 54.8333,123.667 48.5,123C 45.7067,121.455 45.04,119.288 46.5,116.5C 47.8498,115.05 49.5165,114.383 51.5,114.5C 51.5,102.833 51.5,91.1667 51.5,79.5C 47.0243,79.1778 45.5243,76.8444 47,72.5C 47.5,72 48,71.5 48.5,71C 53.1667,70.3333 57.8333,70.3333 62.5,71C 66.5386,79.5769 70.7052,88.0769 75,96.5C 78.8333,88.1667 82.6667,79.8333 86.5,71.5C 91.1313,70.3384 95.798,70.1717 100.5,71C 103.355,74.2224 103.021,77.0558 99.5,79.5C 98.1667,91.1667 98.1667,102.833 99.5,114.5C 103.149,115.539 104.316,117.872 103,121.5C 102.25,122.126 101.416,122.626 100.5,123C 94.5,123.667 88.5,123.667 82.5,123C 79.7067,121.455 79.04,119.288 80.5,116.5C 82.8511,114.771 85.5178,114.104 88.5,114.5 Z"/></g>
<g><path style="opacity:1" fill="#0c1e7a" d="M 106.5,70.5 C 115.506,70.3336 124.506,70.5002 133.5,71C 137.5,73.6667 137.5,76.3333 133.5,79C 130.518,79.498 127.518,79.6646 124.5,79.5C 124.5,91.1667 124.5,102.833 124.5,114.5C 131.167,114.5 137.833,114.5 144.5,114.5C 144.334,110.154 144.501,105.821 145,101.5C 147.916,99.9865 150.582,100.32 153,102.5C 153.5,109.492 153.666,116.492 153.5,123.5C 137.83,123.667 122.163,123.5 106.5,123C 103.833,120.333 103.833,117.667 106.5,115C 109.482,114.502 112.482,114.335 115.5,114.5C 115.5,102.833 115.5,91.1667 115.5,79.5C 112.482,79.6646 109.482,79.498 106.5,79C 103.899,76.1705 103.899,73.3371 106.5,70.5 Z"/></g>
<g><path style="opacity:0.843" fill="#6c79ad" d="M 88.5,114.5 C 88.8257,106.316 88.4924,98.3159 87.5,90.5C 87.7828,89.7109 88.2828,89.0442 89,88.5C 89.8236,97.3433 89.6569,106.01 88.5,114.5 Z"/></g>
</svg>
